<svg xmlns="http://www.w3.org/2000/svg" width="599" height="703" viewBox="0 0 599 703" fill="none" class="injected-svg" data-src="/scenes/1/templated-107-error-sign.svg" xmlns:xlink="http://www.w3.org/1999/xlink" role="img" style="width: 100%; height: 100%; max-width: 100%; max-height: 100%; position: absolute; top: 0; left: 0; right: 0; bottom: 0; z-index: 0;" id="scene">
<g id="templated-107 - error sign" clip-path="url(#clip0_7673_139485-2060)">
<path id="Vector 3046-2061" d="M327.903 577.658C318.169 563.656 297.822 527.048 313.652 518.94C329.483 510.833 337.301 541.947 339.232 558.518C336.819 527.468 339.522 465.949 369.638 468.266C399.754 470.582 389.265 512.99 380.256 533.904C386.772 519.66 403.131 492.706 416.437 498.847C428.151 504.254 420.495 522.883 413.374 534.653C419.92 525.337 431.512 513.594 441.513 518.94C453.181 525.179 450.298 541.409 447.398 548.744C456.78 536.632 477.592 515.377 485.78 527.25C496.015 542.091 485.524 577.402 450.981 577.658H327.903Z" fill="#E2E8F0"/>
<rect id="Rectangle 102" x="309.37" y="211.924" width="17.4465" height="365.717" fill="#E2E8F0" stroke="black" stroke-width="1.9018"/>
<path id="Vector-2062" d="M324.937 48.8045L324.938 48.8047L410.946 206.348L410.947 206.35C411.641 207.614 411.985 209.028 411.946 210.456C411.907 211.883 411.488 213.279 410.726 214.506C409.964 215.734 408.884 216.752 407.59 217.46C406.296 218.167 404.833 218.539 403.344 218.536H403.342H231.305H231.303C229.812 218.539 228.348 218.167 227.053 217.459C225.758 216.751 224.678 215.731 223.915 214.503C223.152 213.275 222.732 211.879 222.692 210.45C222.653 209.021 222.996 207.605 223.69 206.34L223.69 206.339L309.709 48.8047L309.709 48.8045C311.154 46.1566 314.176 44.7546 317.323 44.7546C320.47 44.7546 323.493 46.1566 324.937 48.8045Z" fill="white" stroke="black" stroke-width="1.9018"/>
<path id="Vector_2-2063" d="M322.946 68.747L322.946 68.7471L388.758 193.671L388.759 193.673C389.275 194.647 389.531 195.739 389.502 196.842C389.474 197.946 389.161 199.022 388.594 199.968C388.028 200.913 387.228 201.694 386.273 202.235C385.318 202.776 384.24 203.059 383.144 203.057H383.142H251.502H251.5C250.403 203.059 249.324 202.776 248.368 202.234C247.412 201.692 246.612 200.911 246.045 199.965C245.478 199.019 245.165 197.942 245.135 196.838C245.106 195.733 245.362 194.64 245.878 193.666L245.879 193.664L311.698 68.7472L311.698 68.747C312.763 66.7259 314.989 65.6506 317.322 65.6506C319.655 65.6506 321.881 66.7259 322.946 68.747Z" fill="#94A3B8" stroke="black" stroke-width="1.9018"/>
<path id="!-2064" d="M323.24 105.731C323.243 105.476 323.145 105.231 322.966 105.05C322.787 104.869 322.543 104.767 322.289 104.767H312.348C312.094 104.767 311.85 104.869 311.671 105.05C311.493 105.231 311.394 105.476 311.397 105.731L312.128 160.926C312.135 161.446 312.559 161.864 313.079 161.864H321.558C322.078 161.864 322.502 161.446 322.509 160.926L323.24 105.731ZM321.106 183.021L321.112 183.018C322.242 182.311 323.143 181.373 323.805 180.216C324.501 179.041 324.848 177.75 324.848 176.362C324.848 174.264 324.105 172.439 322.641 170.936C321.176 169.433 319.386 168.662 317.319 168.662C315.252 168.662 313.461 169.433 311.996 170.936C310.532 172.439 309.789 174.264 309.789 176.362C309.789 178.46 310.532 180.286 311.996 181.788C313.461 183.291 315.252 184.063 317.319 184.063C318.701 184.063 319.972 183.72 321.106 183.021Z" fill="white" stroke="black" stroke-width="1.9018" stroke-linejoin="round"/>
<path id="Vector 946-2065" d="M399.566 235.916V275.806H245.206L223.156 255.573L245.198 235.916H399.566Z" fill="white" stroke="black" stroke-width="1.9018"/>
<path id="Vector 3267-2066" d="M247.853 241.214L231.578 255.852L247.853 269.793" stroke="black" stroke-width="3" stroke-linejoin="bevel"/>
<g id="Group 896">
<path id="Vector 973-2067" d="M485.15 581.606C482.945 580.512 480.887 578.608 478.956 576.144C476.995 573.641 475.202 570.611 473.545 567.386C471.89 564.163 470.382 560.773 468.981 557.556C468.754 557.037 468.531 556.521 468.309 556.011C467.398 553.911 466.529 551.908 465.696 550.123C466.816 550.199 468.15 550.517 469.635 551.055C471.743 551.818 474.051 552.987 476.302 554.364C480.834 557.139 484.964 560.659 486.715 563.236C489.803 567.784 495.23 571.77 497.553 573.201C497.574 573.214 497.595 573.226 497.617 573.237C499.163 574.033 504.421 575.985 513.641 577.827C518.125 578.723 521.157 580.153 523.116 581.538C525.1 582.939 525.936 584.256 526.141 584.895C526.28 585.33 526.708 585.604 527.161 585.549L538.121 584.217L536.288 590.739L526.834 590.002C526.552 589.98 526.275 590.084 526.078 590.287C525.88 590.49 525.784 590.77 525.814 591.051C525.972 592.521 525.079 593.77 522.994 594.82C520.921 595.865 517.944 596.547 514.667 596.915C511.408 597.281 507.932 597.328 504.909 597.148C501.859 596.966 499.366 596.559 498.029 596.063C494.889 594.9 491.725 594.798 487.159 594.978C485.881 595.028 484.49 595.101 482.95 595.182C478.956 595.391 473.964 595.652 467.36 595.71C458.964 595.783 454.775 593.09 452.428 590.229C451.232 588.772 450.475 587.225 449.894 585.851C449.748 585.507 449.615 585.176 449.486 584.857L449.459 584.788C449.341 584.497 449.227 584.214 449.116 583.951C449.037 583.763 448.955 583.574 448.868 583.392C449.235 583.299 449.72 583.235 450.332 583.201C451.6 583.132 453.257 583.2 455.22 583.319C455.839 583.356 456.486 583.398 457.156 583.442C460.694 583.673 464.883 583.946 469.05 583.777C469.067 583.777 469.084 583.775 469.101 583.774C474.188 583.291 478.114 583.216 480.76 583.26C482.083 583.282 483.086 583.334 483.755 583.38C484.089 583.403 484.34 583.424 484.505 583.44C484.588 583.448 484.649 583.454 484.689 583.458L484.722 583.462C486.483 583.762 488.731 584.249 491.235 584.792C493.104 585.198 495.115 585.634 497.174 586.046C501.932 587 506.908 587.816 510.549 587.688C511.074 587.669 511.484 587.229 511.466 586.704C511.447 586.179 511.007 585.769 510.482 585.787C507.091 585.907 502.32 585.138 497.547 584.182C495.569 583.785 493.583 583.355 491.716 582.95C489.213 582.408 486.922 581.912 485.15 581.606Z" fill="#EF4444" stroke="black" stroke-width="1.9018" stroke-linecap="round" stroke-linejoin="round"/>
<path id="Vector 974-2068" d="M526.2 589.959V585.315L537.809 583.767L536.648 589.959H526.2Z" fill="black"/>
</g>
<path id="Vector 3265-2069" d="M326.563 226.961L308.613 219.597H326.563V226.961Z" fill="black" stroke="black"/>
<path id="Vector 3266-2070" d="M326.563 284.122L308.613 276.757H326.563V284.122Z" fill="black" stroke="black"/>
<g id="singaporean-box-1" transform="translate(-63.5271 183.112) scale(1.00)" style="--color-illustration-primary: #FFFFFF; --color-illustration-secondary: #FDBA74; --color-illustration-accent: #3B82F6; --color-illustration-skin: #E29B7B;">

<svg xmlns="http://www.w3.org/2000/svg" width="500" height="700" viewBox="0 0 500 700" fill="none" class="injected-svg" data-src="/singaporean/lower/062-firefighter.svg" xmlns:xlink="http://www.w3.org/1999/xlink">
<path d="M288.392 614.877C282.909 615.318 273.151 609.62 266.449 604.417L246.401 606.03L249.316 625.243C255.444 624.565 270.989 623.5 284.141 624.665C300.58 626.12 295.978 614.267 288.392 614.877Z" fill="#FFFFFF" stroke="black" stroke-width="1.9" stroke-linecap="round" stroke-linejoin="round"/>
<path d="M172.312 612.042C168.08 607.565 170.164 599.279 169.043 589.937L153.571 573.57L142.1 589.061C146.961 593.94 157.234 621.774 167.932 622.658C184.483 624.027 178.166 618.235 172.312 612.042Z" fill="#FFFFFF" stroke="black" stroke-width="1.9" stroke-linecap="round" stroke-linejoin="round"/>
<path d="M201.628 348.081C193.581 353.372 184.08 377.853 189.558 403.638C193.126 420.435 195.938 449.714 189.558 472.689C183.543 494.349 166.179 536.994 148.998 575.4L179.761 598.235C179.761 598.235 213.699 496.758 223.255 481.486C229.686 471.207 233.695 452.46 236.952 433.364C236.075 447.784 233.84 467.24 236.349 481.486C240.65 505.9 240.163 606.263 240.163 606.263H277.102C273.581 600.594 270.98 470.838 270.98 464.032C270.98 447.123 272.809 372.587 260.739 339.328C260.739 339.328 246.164 334.701 229.064 337.272C211.964 339.842 201.628 348.081 201.628 348.081Z" fill="#B48A5E"/>
<path d="M241.36 406.215C237.018 432.243 232.81 466.214 223.255 481.486C213.699 496.758 179.761 598.235 179.761 598.235L148.998 575.4C166.179 536.994 183.543 494.349 189.558 472.689C195.938 449.714 193.126 420.435 189.558 403.638C184.08 377.853 193.581 353.372 201.628 348.081C201.628 348.081 211.964 339.842 229.064 337.272C246.164 334.701 260.739 339.328 260.739 339.328C272.809 372.587 270.98 447.123 270.98 464.032C270.98 470.838 273.581 600.594 277.102 606.263H240.163C240.163 606.263 240.65 505.9 236.349 481.486C233.774 466.868 236.196 446.763 237.018 432.243C239.08 420.631 241.36 406.215 241.36 406.215ZM241.36 406.215C242.422 398.023 244.646 380.208 245.047 374.482" stroke="black" stroke-width="1.9" stroke-linecap="round" stroke-linejoin="round"/>
<path d="M229.123 428.479L236.994 428.479C234.402 445.876 226.898 477.605 218.397 486.361L213.959 476.601C211.457 471.098 211.142 464.824 213.076 459.044L221.45 434.023C222.557 430.719 225.655 428.479 229.123 428.479Z" fill="black" stroke="black" stroke-width="1.9"/>
<path d="M240.165 548.34V527.396C246.486 530.924 265.187 529.234 273.747 527.948L274.241 546.687C266.734 550.655 248.396 549.442 240.165 548.34Z" fill="#EB8A40" stroke="black" stroke-width="1.9" stroke-linejoin="round"/>
<path d="M168.958 525.312L175.987 505.492C181.61 518.265 197.854 523.844 205.039 524.211L199.416 543.48C185.546 543.04 173.019 531.735 168.958 525.312Z" fill="#EB8A40" stroke="black" stroke-width="1.9" stroke-linejoin="round"/>
<path d="M200.353 536.322L202.227 530.817C187.701 530.266 177.08 519.255 174.113 513.75L172.004 519.806C178.002 532.138 193.324 536.873 200.353 536.322Z" fill="#D9D9D9"/>
<path d="M273.239 534.003C260.21 539.508 249.185 537.857 241.167 535.643V541.108C245.176 543.913 265.693 544.978 273.239 540.059V534.003Z" fill="#D9D9D9"/>
<path d="M260.711 423.653L270.232 421.691L271.234 481.701L260.49 478.012C257.312 476.921 255.155 473.961 255.089 470.602L254.326 431.645C254.251 427.79 256.935 424.431 260.711 423.653Z" fill="black" stroke="black" stroke-width="1.9"/>
<path d="M223.499 365.123C221.494 374.464 213.877 391.395 199.445 384.389" stroke="black" stroke-width="1.9" stroke-linecap="round" stroke-linejoin="round"/>
</svg><svg xmlns="http://www.w3.org/2000/svg" width="500" height="700" viewBox="0 0 500 700" fill="none" class="injected-svg" data-src="/singaporean/upper/templated-061-hold-left-chef-apron.svg" xmlns:xlink="http://www.w3.org/1999/xlink">
<g id="templated-061 - hold-left chef apron">
<g id="NEW your singaporean">
<g id="upper body">
<path id="left hand-2082" d="M292.146 293.499C292.146 293.499 249.839 224.085 232.975 221.17C216.112 218.254 254.02 277.236 252.031 282.189C252.031 282.189 274.424 308.426 282.352 309.499C290.279 310.573 332.687 310.203 355.463 297.655C357.515 296.735 358.325 294.648 358.877 292.36C360.458 291.228 360.296 289.235 359.445 288.301C360.551 286.204 359.392 284.292 358.549 283.014C356.669 280.161 351.114 281.036 347.402 282.188C344.68 272.259 334.501 272.157 336.812 274.97C341.573 280.765 340.414 285.336 340.414 285.336C340.414 285.336 336.146 289.221 320.146 292.36C304.146 295.499 292.146 293.499 292.146 293.499Z" fill="#E29B7B" stroke="black" stroke-width="1.9" stroke-linecap="round" stroke-linejoin="round"/>
<g id="object-hold-left" transform="translate(269.799 207)">

<g><svg xmlns="http://www.w3.org/2000/svg" width="164" height="169" viewBox="0 0 164 169" fill="none" class="injected-svg" data-src="/singaporean/object/hold-left/002-newspaper-roll-for-beating-cockroach.svg" xmlns:xlink="http://www.w3.org/1999/xlink">
<path d="M81.7591 44.6722C70.6791 68.3964 70.3823 101.15 71.6189 114.561C81.9516 108.394 89.8118 110.98 92.4503 113.044C87.6928 105.722 78.48 88.7366 79.6896 79.3741C80.8992 70.0116 93.4278 55.3796 99.5409 49.2339C96.6017 44.2059 86.4617 44.0978 81.7591 44.6722Z" fill="white" stroke="black" stroke-width="1.9" stroke-linecap="round" stroke-linejoin="round"/>
<ellipse cx="83.0051" cy="116.414" rx="6" ry="11" transform="rotate(-91.4833 83.0051 116.414)" fill="white" stroke="black" stroke-width="1.9" stroke-linecap="round" stroke-linejoin="round"/>
<path d="M93.9267 115.84C87.7035 122.342 77.4082 120.516 77.3215 116.558C77.2132 111.609 89.2269 113.418 85.4439 116.026" stroke="black" stroke-width="1.9" stroke-linecap="round" stroke-linejoin="round"/>
</svg></g></g>
<g id="clothing">
<path id="Vector 40-2083" d="M210.283 215L238.783 224C240.016 229.067 238.633 233.359 247.888 248.604C257.143 263.848 261.184 271.272 267.678 284.005C271.349 297.577 283.662 317.259 278.783 345.5C263.283 340 235.283 343 224.783 348C216.383 352 196.616 349 187.783 347L202.551 288.138V284.005C200.051 272.505 191.097 265.604 194.097 248.604C185.615 237.53 204.839 224 210.283 215Z" fill="#FFFFFF" stroke="black" stroke-width="1.9" stroke-linecap="round" stroke-linejoin="round"/>
<path id="Vector 3264-2084" d="M208.804 299.116L208.845 298.409L208.18 298.167L201.653 295.794L200.581 295.404L200.392 296.529L199.204 303.602L199.101 304.216L199.622 304.555L206.789 309.23L208.16 310.124L208.256 308.489L208.804 299.116Z" fill="#3B82F6" stroke="black" stroke-width="1.9"/>
<path id="Vector 314-2085" d="M224.799 287C228.799 285.082 239.799 279.807 250.085 281.245C258.93 282.483 262.227 285.082 263.799 287" stroke="black" stroke-width="1.5" stroke-linecap="round" stroke-linejoin="round"/>
<g id="Vector 45">
<path d="M197.971 397.658C199.029 396.875 190.831 388.958 189.953 382.738C194.187 275.567 203.798 268.47 209.826 256.895C215.854 245.32 206.908 229.381 206.908 229.381C196.677 223.643 189.953 235.557 178.406 281.738C172.122 313.855 177.164 351.081 176.415 382.738C173.995 390.604 173.036 407.04 176.415 410.238C178.529 412.238 179.029 410.238 179.029 408.738C179.651 410.72 179.483 412.371 181.256 412.371C183.029 412.371 183.629 409.214 183.676 408.182C183.676 411.208 184.788 412.371 186.702 412.371C190.029 412.238 187.912 401.947 189.953 394.547C191.088 396.723 194.28 400.391 197.971 397.658Z" fill="#E29B7B"/>
<path d="M183.676 408.182C183.676 411.208 184.788 412.371 186.702 412.371C190.029 412.238 187.912 401.947 189.953 394.547C191.088 396.723 194.28 400.391 197.971 397.658C199.029 396.875 190.831 388.958 189.953 382.738C194.187 275.567 203.798 268.47 209.826 256.895C215.854 245.32 206.908 229.381 206.908 229.381C196.677 223.643 189.953 235.557 178.406 281.738C172.122 313.855 177.164 351.081 176.415 382.738C173.995 390.604 173.036 407.04 176.415 410.238C178.529 412.238 179.029 410.238 179.029 408.738M183.676 408.182C183.629 409.214 183.029 412.371 181.256 412.371C179.483 412.371 179.651 410.72 179.029 408.738M183.676 408.182C183.676 408.182 183.029 403.238 183.676 394.547M179.029 408.738C179.029 408.738 177.529 398.738 179.029 394.547" stroke="black" stroke-width="1.9" stroke-linecap="round" stroke-linejoin="round"/>
</g>
<path id="Vector 545-2086" d="M198.333 290.146C199.739 278.544 210.436 255.412 210.436 255.412C210.436 255.412 204.854 276.434 202.041 290.146C199.228 303.858 192.799 348 192.799 348C192.799 343.637 196.927 301.748 198.333 290.146Z" fill="black" stroke="black" stroke-width="1.9" stroke-linecap="round" stroke-linejoin="round"/>
</g>
<g id="fingers">
<path id="Ellipse 14-2087" d="M346.434 285.195C347.183 287.25 352.203 286.197 355.575 284.967C358.948 283.737 359.199 282.255 358.647 280.741C358.095 279.227 356.949 278.255 353.576 279.484C350.204 280.714 345.684 283.139 346.434 285.195Z" fill="#E29B7B" stroke="black" stroke-width="1.9" stroke-linecap="round" stroke-linejoin="round"/>
<path id="Ellipse 15-2088" d="M348.434 290.195C349.183 292.25 354.203 291.197 357.575 289.967C360.948 288.737 361.199 287.255 360.647 285.741C360.095 284.227 358.949 283.255 355.576 284.484C352.204 285.714 347.684 288.139 348.434 290.195Z" fill="#E29B7B" stroke="black" stroke-width="1.9" stroke-linecap="round" stroke-linejoin="round"/>
<path id="Ellipse 16-2089" d="M349.434 295.195C350.183 297.25 355.203 296.197 358.575 294.967C361.948 293.737 362.199 292.255 361.647 290.741C361.095 289.227 359.949 288.255 356.576 289.484C353.204 290.714 348.684 293.139 349.434 295.195Z" fill="#E29B7B" stroke="black" stroke-width="1.9" stroke-linecap="round" stroke-linejoin="round"/>
</g>
<path id="Vector 3184-2090" d="M208.878 261.242C211.854 253.195 210.515 234.552 202.118 225.101C201.5 224.405 201.805 222.488 202.497 221.865C203.338 221.109 204.196 220.148 204.882 219.307C205.302 218.792 206.097 218.784 206.493 219.318C207.996 221.346 211.25 225.889 212.945 229.41C214.888 233.446 216.831 240.197 217.325 241.967C217.403 242.247 217.595 242.477 217.859 242.596C225.041 245.844 233.839 244.174 238.08 242.693C238.537 242.534 238.793 242.058 238.698 241.585L235.034 223.307C234.877 222.525 235.655 221.883 236.393 222.185L238.622 223.097C238.779 223.162 238.915 223.261 239.019 223.395C243.659 229.33 250.736 243.883 255.6 252.782C255.629 252.836 255.661 252.883 255.7 252.931C282.759 286.175 292.23 388.979 288.033 435.547C287.985 436.079 287.528 436.45 286.995 436.424L192.882 431.94C192.298 431.912 191.858 431.431 191.932 430.852C193.022 422.354 200.474 364.022 201.814 346.63C203.228 328.286 208.576 264.4 208.821 261.475C208.829 261.382 208.846 261.33 208.878 261.242Z" fill="#3B82F6" stroke="black" stroke-width="1.9" stroke-linejoin="round"/>
<path id="Vector 3185-2091" d="M262.983 304.897C253.962 308.86 235.349 308.916 225.78 308.372C225.162 308.337 224.66 308.858 224.738 309.473C226.159 320.595 232.594 340.562 248.467 339.885C264.263 339.212 265.764 317.664 264.457 305.698C264.381 305.001 263.624 304.616 262.983 304.897Z" stroke="black" stroke-width="1.5" stroke-linecap="round" stroke-linejoin="round"/>
<path id="Vector 3186-2092" d="M266.017 297.653C252.071 302.161 231.343 302.55 221.35 301.294C220.7 301.212 220.14 301.752 220.206 302.404L220.752 307.771C220.796 308.205 221.118 308.562 221.546 308.645C240.075 312.261 259.061 307.761 267.091 305.225C267.53 305.086 267.812 304.663 267.777 304.204L267.35 298.537C267.3 297.881 266.643 297.45 266.017 297.653Z" fill="#3B82F6" stroke="black" stroke-width="1.5" stroke-linecap="round" stroke-linejoin="round"/>
</g>
</g>
</g>
</svg><svg xmlns="http://www.w3.org/2000/svg" width="500" height="700" viewBox="0 0 500 700" fill="none" class="injected-svg" data-src="/singaporean/head/032-salt-and-pepper.svg" xmlns:xlink="http://www.w3.org/1999/xlink">
<path d="M261.289 191.021V152.521C261.289 152.521 257.28 132.509 232.725 132.009C208.17 131.509 205.665 151.509 205.665 151.509C205.665 161.086 208.703 166.464 212.466 169.379C208.321 166.891 202.046 164.924 200.654 171.521C199.05 179.121 207.335 183.021 211.678 183.521C214.885 200.721 211.678 212.354 209.674 216.521C213.683 224.521 227.714 223.188 234.228 221.521V209.021C261.088 209.821 261.289 200.021 261.289 191.021Z" fill="#E29B7B" stroke="black" stroke-width="1.9" stroke-linejoin="round"/>
<path d="M233.663 209.057C230.152 208.897 224.384 207.856 222.828 204.972C222.762 204.83 222.699 204.692 222.638 204.557C222.692 204.699 222.755 204.838 222.828 204.972C225.261 210.267 230.539 220.278 233.663 221.057V209.057Z" fill="black" stroke="black" stroke-width="1.9" stroke-linecap="round" stroke-linejoin="round"/>
<path d="M215.149 172.627V156.127C218.192 145.127 226.747 156.627 238.738 156.627C248.792 156.627 257.78 146.627 261.754 156.627C268.304 151.127 270.845 139.627 266.299 135.627C261.753 131.627 257.279 135.127 256.778 135.627C256.945 133.127 255.776 127.627 249.762 125.627C243.749 123.627 241.577 127.96 241.243 130.127C240.408 128.294 234.729 123.127 229.216 124.127C223.704 125.127 223.704 129.794 223.203 131.627C221.879 130.627 220.196 126.127 216.689 127.127C213.181 128.127 213.503 133.627 213.181 134.627C212.524 133.96 209.501 131.227 206.666 131.627C203.123 132.127 201.154 138.627 201.154 142.127C199.951 154.127 203.302 164.46 205.127 168.127C208.735 167.327 213.312 170.794 215.149 172.627Z" fill="black" stroke="black" stroke-width="1.9" stroke-linecap="round" stroke-linejoin="round"/>
<path d="M232.724 150.127L230.72 147.127" stroke="white" stroke-width="1.5" stroke-linecap="round" stroke-linejoin="round"/>
<path d="M208.67 152.027L205.963 149.639" stroke="white" stroke-width="1.5" stroke-linecap="round" stroke-linejoin="round"/>
<path d="M237.989 146.268L239.485 142.986" stroke="white" stroke-width="1.5" stroke-linecap="round" stroke-linejoin="round"/>
<path d="M213.624 144.682L214.227 141.127" stroke="white" stroke-width="1.5" stroke-linecap="round" stroke-linejoin="round"/>
<path d="M248.756 146.385L247.157 143.152" stroke="white" stroke-width="1.5" stroke-linecap="round" stroke-linejoin="round"/>
<path d="M225.049 138.541L222.673 135.825" stroke="white" stroke-width="1.5" stroke-linecap="round" stroke-linejoin="round"/>
<path d="M257.762 145.343L259.432 142.145" stroke="white" stroke-width="1.5" stroke-linecap="round" stroke-linejoin="round"/>
<path d="M233.727 134.127L234.282 131.715" stroke="white" stroke-width="1.5" stroke-linecap="round" stroke-linejoin="round"/>
<path d="M248.588 135.645L249.382 132.127" stroke="white" stroke-width="1.5" stroke-linecap="round" stroke-linejoin="round"/>
</svg><svg xmlns="http://www.w3.org/2000/svg" width="500" height="700" viewBox="0 0 500 700" fill="none" class="injected-svg" data-src="/singaporean/eyes/011-sweats.svg" xmlns:xlink="http://www.w3.org/1999/xlink">
<ellipse cx="1.00224" cy="1" rx="1.00224" ry="1" transform="matrix(-1 0 0 1 236.932 175.221)" fill="black"/>
<ellipse cx="1.00224" cy="1" rx="1.00224" ry="1" transform="matrix(-1 0 0 1 252.815 175.011)" fill="black"/>
<path d="M236.528 166.012C236.528 169.012 230.6 169.012 227.933 169.012" stroke="black" stroke-width="1.5" stroke-linecap="round" stroke-linejoin="round"/>
<path d="M249.056 165C251.663 168.609 255.339 168.609 258.855 168.609" stroke="black" stroke-width="1.5" stroke-linecap="round" stroke-linejoin="round"/>
<path d="M217.415 176.508C215.509 179.888 212.587 186.649 216.144 186.649C219.702 186.649 218.473 179.888 217.415 176.508Z" fill="#F9FAFB" stroke="black" stroke-width="1.5" stroke-linejoin="round"/>
<path d="M221.56 162C219.588 165.499 216.563 172.497 220.245 172.497C223.928 172.497 222.656 165.499 221.56 162Z" fill="#F9FAFB" stroke="black" stroke-width="1.5" stroke-linejoin="round"/>
<path d="M239.244 179.528C240.05 176.887 242.85 175.398 245.498 176.203C248.145 177.008 249.638 179.802 248.831 182.443C248.353 184.008 247.176 185.168 245.745 185.687" stroke="black" stroke-width="1.5" stroke-linecap="round" stroke-linejoin="round"/>
</svg><svg xmlns="http://www.w3.org/2000/svg" width="500" height="700" viewBox="0 0 500 700" fill="none" class="injected-svg" data-src="/singaporean/mouth/004-slight-smile.svg" xmlns:xlink="http://www.w3.org/1999/xlink">
<path d="M238.032 192.5C238.867 193.667 240.537 196 244.045 196C246.851 196 248.555 193.667 249.056 192.5" stroke="black" stroke-width="1.5" stroke-linecap="round" stroke-linejoin="round"/>
</svg><svg xmlns="http://www.w3.org/2000/svg" width="500" height="700" viewBox="0 0 500 700" fill="none" class="injected-svg" data-src="/singaporean/accessory/008-full-beard.svg" xmlns:xlink="http://www.w3.org/1999/xlink">
<path d="M245.302 212.389C259.702 211.675 262.586 200 260.203 183.511C259.61 188.438 256.064 190.403 253.689 194.011C253.076 194.942 253.409 198.223 252.687 199.011C251.183 203.011 247.475 204.072 243.328 204.225C239.422 204.37 237.152 203.792 235.148 201.011C233.143 198.23 234 195.512 232.141 194.511C221.665 188.87 212.779 182.768 210.614 181C210.614 187 212.597 214.011 245.302 212.389Z" fill="black" stroke="black" stroke-width="1.9" stroke-linecap="round" stroke-linejoin="round"/>
<path d="M239.156 185.012L244.167 185.512C244.167 185.512 237.151 189.012 235.358 191.012C233.564 193.012 233.644 197.512 233.644 197.512C233.644 197.512 233.142 191.512 234.646 189.012C236.149 186.512 239.156 185.012 239.156 185.012Z" fill="black" stroke="black" stroke-width="1.9" stroke-linecap="round" stroke-linejoin="round"/>
<path d="M249.599 185.012L244.588 185.512C244.588 185.512 250.392 188.512 252.185 190.512C253.979 192.512 253.187 197.512 253.187 197.512C253.187 197.512 255.612 191.512 254.109 189.012C252.606 186.512 249.599 185.012 249.599 185.012Z" fill="black" stroke="black" stroke-width="1.9" stroke-linecap="round" stroke-linejoin="round"/>
<path d="M242.665 207.512L243.667 208.512" stroke="white" stroke-width="1.9" stroke-linecap="round" stroke-linejoin="round"/>
<path d="M235.175 207.305L235.121 208.718" stroke="white" stroke-width="1.9" stroke-linecap="round" stroke-linejoin="round"/>
<path d="M231.373 207.512L231.32 208.925" stroke="white" stroke-width="1.9" stroke-linecap="round" stroke-linejoin="round"/>
<path d="M247.676 205.512L246.674 206.512" stroke="white" stroke-width="1.9" stroke-linecap="round" stroke-linejoin="round"/>
<path d="M225.885 204.67L226.784 205.764" stroke="white" stroke-width="1.9" stroke-linecap="round" stroke-linejoin="round"/>
<path d="M251.452 205.355L250.916 206.665" stroke="white" stroke-width="1.9" stroke-linecap="round" stroke-linejoin="round"/>
<path d="M216.585 183.322L217.12 184.632" stroke="black" stroke-width="1.9" stroke-linecap="round" stroke-linejoin="round"/>
<path d="M224.854 187.613L223.875 188.635" stroke="black" stroke-width="1.9" stroke-linecap="round" stroke-linejoin="round"/>
<path d="M230.355 190.648L230.933 191.94" stroke="black" stroke-width="1.9" stroke-linecap="round" stroke-linejoin="round"/>
<path d="M241.135 201.523L241.561 202.872" stroke="black" stroke-width="1.9" stroke-linecap="round" stroke-linejoin="round"/>
<path d="M227.633 189.941L227.451 191.344" stroke="black" stroke-width="1.9" stroke-linecap="round" stroke-linejoin="round"/>
<path d="M238.512 201.512L238.171 202.884" stroke="black" stroke-width="1.9" stroke-linecap="round" stroke-linejoin="round"/>
<path d="M220.198 185.887L220.108 187.298" stroke="black" stroke-width="1.9" stroke-linecap="round" stroke-linejoin="round"/>
<path d="M223.459 185.625L222.856 186.905" stroke="black" stroke-width="1.9" stroke-linecap="round" stroke-linejoin="round"/>
<path d="M255.949 187.512L256.663 188.734" stroke="black" stroke-width="1.9" stroke-linecap="round" stroke-linejoin="round"/>
<path d="M250.705 196.82L251.941 197.514" stroke="black" stroke-width="1.9" stroke-linecap="round" stroke-linejoin="round"/>
<path d="M246.327 201.32L246.151 202.724" stroke="black" stroke-width="1.9" stroke-linecap="round" stroke-linejoin="round"/>
<path d="M248.725 199.854L249.308 201.142" stroke="black" stroke-width="1.9" stroke-linecap="round" stroke-linejoin="round"/>
<path d="M256.696 185.641L257.819 186.504" stroke="black" stroke-width="1.9" stroke-linecap="round" stroke-linejoin="round"/>
</svg><svg xmlns="http://www.w3.org/2000/svg" width="500" height="700" viewBox="0 0 500 700" fill="none" class="injected-svg" data-src="/singaporean/accessory/004-2-day-stubbles.svg" xmlns:xlink="http://www.w3.org/1999/xlink">
<path d="M232.519 201L232.519 208" stroke="black" stroke-width="1.5" stroke-linecap="round" stroke-linejoin="round"/>
<path d="M236.528 202V208" stroke="black" stroke-width="1.5" stroke-linecap="round" stroke-linejoin="round"/>
<path d="M240.537 203V208" stroke="black" stroke-width="1.5" stroke-linecap="round" stroke-linejoin="round"/>
<path d="M244.546 203V208" stroke="black" stroke-width="1.5" stroke-linecap="round" stroke-linejoin="round"/>
<path d="M248.555 203V207" stroke="black" stroke-width="1.5" stroke-linecap="round" stroke-linejoin="round"/>
<path d="M252.564 202V206" stroke="black" stroke-width="1.5" stroke-linecap="round" stroke-linejoin="round"/>
</svg></g>
</g>
<defs>
<clipPath id="clip0_7673_139485-2060">
<rect width="599" height="703" fill="white"/>
</clipPath>
</defs>
</svg>